<svg xmlns="http://www.w3.org/2000/svg" data-name="Layer 1" width="860.13137" height="551.74119" viewBox="0 0 860.13137 551.74119" xmlns:xlink="http://www.w3.org/1999/xlink">
    <path d="M973.93474,661.6294H756.58639A29.859,29.859,0,0,1,726.76056,631.804V288.961a29.85942,29.85942,0,0,1,29.82583-29.82582H973.93474a29.85941,29.85941,0,0,1,29.82582,29.82582V631.804A29.859,29.859,0,0,1,973.93474,661.6294Z" transform="translate(-169.93432 -174.1294)" fill="#e6e6e6" />
    <path d="M977.53913,276.93253H756.17645a9.34834,9.34834,0,0,0-9.33681,9.33676V633.58254a9.35131,9.35131,0,0,0,9.33681,9.33681H977.53913a9.34833,9.34833,0,0,0,9.33675-9.33681V286.26929A9.34829,9.34829,0,0,0,977.53913,276.93253Z" transform="translate(-169.93432 -174.1294)" fill="#fff" />
    <path d="M761.899,259.13517a2.2844,2.2844,0,0,1,2.28171-2.28171h15.51565a2.28171,2.28171,0,1,1,0,4.56342H764.18066A2.2844,2.2844,0,0,1,761.899,259.13517Z" transform="translate(-169.93432 -174.1294)" fill="#e6e6e6" />
    <path d="M787.45414,259.13517a2.2844,2.2844,0,0,1,2.28171-2.28171H805.2515a2.28171,2.28171,0,1,1,0,4.56342H789.73585A2.2844,2.2844,0,0,1,787.45414,259.13517Z" transform="translate(-169.93432 -174.1294)" fill="#e6e6e6" />
    <path d="M940.78528,259.13517a2.2844,2.2844,0,0,1,2.28171-2.28171h15.51565a2.28171,2.28171,0,0,1,0,4.56342H943.067A2.2844,2.2844,0,0,1,940.78528,259.13517Z" transform="translate(-169.93432 -174.1294)" fill="#e6e6e6" />
    <path d="M897.5331,635.76388c0,2.40036-.04562,4.79159-.15514,7.15547H756.17645a9.35131,9.35131,0,0,1-9.33681-9.33681V458.76681A179.28922,179.28922,0,0,1,897.5331,635.76388Z" transform="translate(-169.93432 -174.1294)" fill="#f2f2f2" />
    <rect x="665.80402" y="192.05598" width="61.33866" height="14.09239" rx="4.33898" fill="currentColor" />
    <rect x="632.33461" y="220.24075" width="128.27749" height="14.09239" rx="4.33898" fill="#e6e6e6" />
    <rect x="632.33461" y="248.42552" width="128.27749" height="14.09239" rx="4.33898" fill="#e6e6e6" />
    <path d="M966.47418,307.5955H767.24135a1.64925,1.64925,0,0,1,0-3.2977H966.47418a1.64925,1.64925,0,0,1,0,3.2977Z" transform="translate(-169.93432 -174.1294)" fill="#cacaca" />
    <ellipse cx="607.93675" cy="120.44623" rx="4.8462" ry="4.95421" fill="#3f3d56" />
    <ellipse cx="624.67818" cy="120.44623" rx="4.8462" ry="4.95421" fill="#3f3d56" />
    <ellipse cx="641.41961" cy="120.44623" rx="4.8462" ry="4.95421" fill="#3f3d56" />
    <path d="M958.68675,291.5355H947.84163a.82133.82133,0,0,0,0,1.64234h10.84512a.82133.82133,0,0,0,0-1.64234Z" transform="translate(-169.93432 -174.1294)" fill="#3f3d56" />
    <path d="M958.68675,294.61792H947.84163a.82133.82133,0,0,0,0,1.64234h10.84512a.82133.82133,0,0,0,0-1.64234Z" transform="translate(-169.93432 -174.1294)" fill="#3f3d56" />
    <path d="M958.68675,297.69629H947.84163a.82133.82133,0,0,0,0,1.64234h10.84512a.82133.82133,0,0,0,0-1.64234Z" transform="translate(-169.93432 -174.1294)" fill="#3f3d56" />
    <path d="M635.43274,458.89724h-115.51a6.16309,6.16309,0,0,0-6.15377,6.16965v182.4718H641.60239V465.06689A6.16641,6.16641,0,0,0,635.43274,458.89724ZM578.06635,562.57549a13.70383,13.70383,0,0,1-13.63984-13.63975V527.8892a13.6398,13.6398,0,0,1,27.27959,0v21.04654a13.70363,13.70363,0,0,1-13.63975,13.63975Z" transform="translate(-169.93432 -174.1294)" fill="#e6e6e6" />
    <path d="M513.37246,641.70214V659.307a3.44873,3.44873,0,0,0,3.44174,3.44164h121.743a3.459,3.459,0,0,0,3.44164-3.44164v-17.6049Z" transform="translate(-169.93432 -174.1294)" fill="#ccc" />
    <path d="M826.70694,174.1294H332.94669a16.02852,16.02852,0,0,0-16.003,16.00291v333.1915a16.01831,16.01831,0,0,0,16.003,16.00291H826.70694a16.0183,16.0183,0,0,0,16.003-16.00291V190.13231A16.02851,16.02851,0,0,0,826.70694,174.1294Z" transform="translate(-169.93432 -174.1294)" fill="#e6e6e6" />
    <path d="M822.58545,185.68807H337.072a8.577,8.577,0,0,0-8.55836,8.57616v324.933a8.57312,8.57312,0,0,0,8.55836,8.55835H822.58545a8.57312,8.57312,0,0,0,8.55836-8.55835v-324.933A8.577,8.577,0,0,0,822.58545,185.68807Z" transform="translate(-169.93432 -174.1294)" fill="#fff" />
    <path d="M831.14381,194.26423v324.933a8.57312,8.57312,0,0,1-8.55836,8.55835H651.3826a210.0918,210.0918,0,0,1-45.83429-61.67q-1.12107-2.242-2.13516-4.53716a208.22672,208.22672,0,0,1-18.50461-71.22483c-.12456-1.51234-.23132-3.0248-.30245-4.555-.23131-3.91445-.33807-7.88222-.33807-11.8678a209.12838,209.12838,0,0,1,14.75024-77.41671c.58719-1.53016,1.2099-3.04261,1.85052-4.555A210.6655,210.6655,0,0,1,701.13144,185.68807h121.454A8.577,8.577,0,0,1,831.14381,194.26423Z" transform="translate(-169.93432 -174.1294)" fill="currentColor" />
    <path d="M798.17952,230.45658h-454.293a1.807,1.807,0,0,1,0-3.61318h454.293a1.807,1.807,0,0,1,0,3.61318Z" transform="translate(-169.93432 -174.1294)" fill="#cacaca" />
    <ellipse cx="204.8765" cy="32.66644" rx="10.58751" ry="10.82345" fill="#3f3d56" />
    <ellipse cx="241.45152" cy="32.66644" rx="10.58751" ry="10.82345" fill="#3f3d56" />
    <ellipse cx="278.02654" cy="32.66644" rx="10.58751" ry="10.82345" fill="#3f3d56" />
    <path d="M776.15825,198.65509h-25.981a1.96761,1.96761,0,0,0,0,3.93445h25.981a1.96761,1.96761,0,0,0,0-3.93445Z" transform="translate(-169.93432 -174.1294)" fill="#3f3d56" />
    <path d="M776.15825,206.03946h-25.981a1.96761,1.96761,0,0,0,0,3.93445h25.981a1.96761,1.96761,0,0,0,0-3.93445Z" transform="translate(-169.93432 -174.1294)" fill="#3f3d56" />
    <path d="M776.15825,213.41413h-25.981a1.96761,1.96761,0,0,0,0,3.93445h25.981a1.96761,1.96761,0,0,0,0-3.93445Z" transform="translate(-169.93432 -174.1294)" fill="#3f3d56" />
    <rect x="245.18323" y="161.87055" width="72.2068" height="15.44057" rx="4.33898" fill="currentColor" />
    <rect x="208.51186" y="192.75169" width="145.54953" height="15.44057" rx="4.33898" fill="#e6e6e6" />
    <rect x="208.51186" y="223.63284" width="145.54953" height="15.44057" rx="4.33898" fill="#e6e6e6" />
    <path d="M390.326,509.12653a53.04966,53.04966,0,0,1-3.34507,18.62906H337.072a8.57312,8.57312,0,0,1-8.55836-8.55835V456.42412a52.71645,52.71645,0,0,1,8.4338-.67613A53.37521,53.37521,0,0,1,390.326,509.12653Z" transform="translate(-169.93432 -174.1294)" fill="currentColor" />
    <path d="M433.9109,405.74122h0V354.99783A29.36884,29.36884,0,0,0,404.54206,325.629H297.03532a29.36886,29.36886,0,0,0-29.36886,29.36886v278.382a29.36883,29.36883,0,0,0,29.36883,29.36883h107.5068a29.36878,29.36878,0,0,0,29.36878-29.36878V441.8612h0a1.8523,1.8523,0,0,0,1.8523-1.8523V407.59353A1.8523,1.8523,0,0,0,433.9109,405.74122Z" transform="translate(-169.93432 -174.1294)" fill="#e6e6e6" />
    <path d="M427.66059,355.19941v277.98a21.91853,21.91853,0,0,1-21.69,21.92,1.92592,1.92592,0,0,1-.24006.01h-108.03a21.93206,21.93206,0,0,1-21.93-21.93v-277.98a21.932,21.932,0,0,1,21.93-21.93h13.11a10.42747,10.42747,0,0,0,9.65,14.36h61.59a10.43506,10.43506,0,0,0,9.64-14.36h14.04A21.932,21.932,0,0,1,427.66059,355.19941Z" transform="translate(-169.93432 -174.1294)" fill="#fff" />
    <path d="M406.24054,646.52937q0,4.32-.26995,8.57a1.92592,1.92592,0,0,1-.24006.01h-108.03a21.93206,21.93206,0,0,1-21.93-21.93v-123.88A137.38836,137.38836,0,0,1,406.24054,646.52937Z" transform="translate(-169.93432 -174.1294)" fill="#f2f2f2" />
    <path d="M268.26056,434.129a2.50295,2.50295,0,0,1-2.5-2.5v-17a2.5,2.5,0,0,1,5,0v17A2.50294,2.50294,0,0,1,268.26056,434.129Z" transform="translate(-169.93432 -174.1294)" fill="#e6e6e6" />
    <rect x="164.17787" y="246.42571" width="35.2068" height="15.44057" rx="4.33898" fill="currentColor" />
    <rect x="127.5065" y="277.30686" width="108.54953" height="15.44057" rx="4.33898" fill="#e6e6e6" />
    <rect x="127.5065" y="308.18801" width="108.54953" height="15.44057" rx="4.33898" fill="#e6e6e6" />
    <path d="M267.76056,401.129a2.50295,2.50295,0,0,1-2.5-2.5v-17a2.5,2.5,0,0,1,5,0v17A2.50294,2.50294,0,0,1,267.76056,401.129Z" transform="translate(-169.93432 -174.1294)" fill="#e6e6e6" />
    <path d="M334.26056,336.129a2.50295,2.50295,0,0,1,2.5-2.5h17a2.5,2.5,0,0,1,0,5h-17A2.50295,2.50295,0,0,1,334.26056,336.129Z" transform="translate(-169.93432 -174.1294)" fill="#fff" />
    <path d="M268.26056,463.129a2.50295,2.50295,0,0,1-2.5-2.5v-17a2.5,2.5,0,0,1,5,0v17A2.50294,2.50294,0,0,1,268.26056,463.129Z" transform="translate(-169.93432 -174.1294)" fill="#e6e6e6" />
    <circle cx="193.32625" cy="161.99959" r="2.5" fill="#fff" />
    <path d="M1028.875,662.74206l-857.75.30734a1.19069,1.19069,0,0,1,0-2.38137l857.75-.30733a1.19068,1.19068,0,0,1,0,2.38136Z" transform="translate(-169.93432 -174.1294)" fill="#cacaca" />
    <path d="M536.70774,400.23565l-4.51178.96682a25.97456,25.97456,0,0,0-.70141-5.60184,16.82138,16.82138,0,0,1-2.54029,6.29376l-25.87636,5.526-24.84317-26.21763c-.038-13.10875,7.24154-23.07069,20.29349-23.07069.78673,0,1.60187.03789,2.4265.11374a27.60423,27.60423,0,0,1,31.60142,21.69635C541.80713,389.051,538.45176,394.40633,536.70774,400.23565Z" transform="translate(-169.93432 -174.1294)" fill="#2f2e41" />
    <polygon points="379.495 532.711 388.881 532.711 393.347 496.506 379.493 496.507 379.495 532.711" fill="#ffb6b6" />
    <path d="M547.1016,702.21l14.83766-.8856v6.35709l14.10658,9.74251a3.97089,3.97089,0,0,1-2.25639,7.23856H556.12466l-3.04479-6.28815-1.18884,6.28815H545.2307Z" transform="translate(-169.93432 -174.1294)" fill="#2f2e41" />
    <polygon points="269.531 522.494 277.695 527.126 299.445 497.841 287.396 491.005 269.531 522.494" fill="#ffb6b6" />
    <path d="M439.7257,691.44757l13.34209,6.552-3.13719,5.52908,7.46132,15.43505a3.97088,3.97088,0,0,1-5.53467,5.18221l-15.36394-8.71746.45495-6.9717-4.13716,4.88243-5.79281-3.28683Z" transform="translate(-169.93432 -174.1294)" fill="#2f2e41" />
    <path d="M584.12407,406.57845A8.31273,8.31273,0,0,0,577.424,417.422l-14.363,12.43183,5.426,10.571,20.03683-17.841a8.35777,8.35777,0,0,0-4.39963-16.00537Z" transform="translate(-169.93432 -174.1294)" fill="#ffb6b6" />
    <path d="M569.66026,449.32863c-4.79112,7.25634-15.529,14.2643-31.46542,20.47709a6.83906,6.83906,0,0,1-5.49825-.17967c-6.014-2.73707-9.86837-12.91192-10.23019-13.89889l-11.64788-15.7126c-.20677-.22889-5.65354-6.4106-5.03056-12.48783a8.87668,8.87668,0,0,1,3.82279-6.36192c8.81731-6.53644,28.57855,16.165,31.14284,19.1833l12.89683-7.85786,9.39728-4.19259,7.586-9.23085L581.315,429.98732l-9.6065,15.28305A18.4177,18.4177,0,0,1,569.66026,449.32863Z" transform="translate(-169.93432 -174.1294)" fill="#2f2e41" />
    <path d="M536.16214,477.16877s27.59842,43.96063,22.59842,48.96063-12.78065,6.313-12.78065,6.313l-17.21935-22.313Z" transform="translate(-169.93432 -174.1294)" fill="#2f2e41" />
    <path d="M511.76056,417.1294l13.0073,8.79906a33.552,33.552,0,0,1,13.07194,38.27628l-3.66191,11.13047Z" transform="translate(-169.93432 -174.1294)" fill="#2f2e41" />
    <polygon points="318.826 363 317.087 369.057 311.153 442.098 281.507 497.348 295.656 507.454 336.083 454.899 352.073 402.716 377.184 518.235 396.05 516.887 382.947 356.722 358.084 311.639 318.826 363" fill="#2f2e41" />
    <path d="M509.54846,419.342,527.652,434.13714a24.65484,24.65484,0,0,1,8.18435,12.60337v0a24.65458,24.65458,0,0,1,.86527,6.901l-.53945,32.12721,16.59842,44.36063s-45,17-51,2S509.54846,419.342,509.54846,419.342Z" transform="translate(-169.93432 -174.1294)" fill="currentColor" />
    <path d="M514.9631,539.91579c-22.48009,0-27.95872.16916-28.31367.09731l-.35559-.07186V526.42033l5.46672-24.29093c-.63882-7.54134-2.13556-17.48536-2-26,.49-30.77524-1.02286-60.83726-1.02286-60.83726l11.89811-10.9826L506.041,407.827l10.02641,10.026c11.6544,28.68151,20.90231,55.68351,20.96053,57.41842l.73265,29.858-3,12C521.18922,526.70953,533.58942,539.91579,514.9631,539.91579Z" transform="translate(-169.93432 -174.1294)" fill="#2f2e41" />
    <polygon points="323.846 267.973 321.113 285.031 339.614 292.662 323.846 267.973" opacity="0.2" />
    <circle cx="342.48363" cy="208.86652" r="18.11367" fill="#ffb6b6" />
    <path d="M482.06684,474.90258l0,0a33.27248,33.27248,0,0,0,39.93954,8.07283l3.94238-1.95109Z" transform="translate(-169.93432 -174.1294)" opacity="0.2" />
    <path d="M545.09806,470.73289a8.31267,8.31267,0,0,0-12.74075.38476l-18.289-5.13434-5.83084,10.35316,25.92939,6.88793a8.35777,8.35777,0,0,0,10.93117-12.49151Z" transform="translate(-169.93432 -174.1294)" fill="#ffb6b6" />
    <path d="M501.45435,482.2223c-8.69535.00086-20.46057-5.0974-34.42712-14.97187a6.839,6.839,0,0,1-2.88-4.687c-1.03022-6.52671,5.33612-15.35019,5.96031-16.196L476.8,427.98888c.077-.29868,2.23379-8.25037,7.64826-11.07957a8.87676,8.87676,0,0,1,7.41538-.316c10.3134,3.75553,2.26019,32.75562,1.15466,36.55876l13.66419,6.43148,8.67717,5.53112,11.88318,1.24319-3.22635,14.93118-18.04692.406A18.41807,18.41807,0,0,1,501.45435,482.2223Z" transform="translate(-169.93432 -174.1294)" fill="#2f2e41" />
    <path d="M534.139,371.0797c-1.45024,1.88622-6.44538,3.55444-12.379,4.90038.00949-.12317.00949-.24639.00949-.36962a25.97447,25.97447,0,0,0-.7014-5.60184,16.82145,16.82145,0,0,1-2.5403,6.29375c-.09476.14221-.18952.28435-.29383.42655-5.09,1.00472-10.47376,1.782-14.69171,2.30327,2.90042,10.44536,14.01877,19.01392,12.815,25.36454l-32.57768,6.65389a25.53908,25.53908,0,0,0-.62556-7.86717,16.93373,16.93373,0,0,1-4.72034,8.95722l-2.76771.56869-.82463-4.06627c-7.14679-17.16559,2.81509-34.73875,19.13714-43.82868a19.84012,19.84012,0,0,1,12.56853-8.43591l4.06627-.83412A19.93427,19.93427,0,0,1,534.139,371.0797Z" transform="translate(-169.93432 -174.1294)" fill="#2f2e41" />
    <path d="M611.96139,699.46589l.48173-10.83182a34.9833,34.9833,0,0,1,16.31744-4.13057c-7.837,6.4073-6.8576,18.75842-12.17087,27.37474a21.04264,21.04264,0,0,1-15.43077,9.72408l-6.55827,4.01542a35.26073,35.26073,0,0,1,7.43207-28.57312,34.06013,34.06013,0,0,1,6.25957-5.81618C609.863,695.37012,611.96139,699.46589,611.96139,699.46589Z" transform="translate(-169.93432 -174.1294)" fill="#f2f2f2" />
    <path d="M627.861,725.8706H399.479a1.19069,1.19069,0,0,1,0-2.38137H627.861a1.19069,1.19069,0,1,1,0,2.38137Z" transform="translate(-169.93432 -174.1294)" fill="#cacaca" />
</svg>